PathFileType	4	(X/Y/Z)	G:\GRF\jawan data\CompiledGRF\03. Mohit Kumar\0231~ac~Walking 02_markers.trc
DataRate	CameraRate	NumFrames	NumMarkers	Units	OrigDataRate	OrigDataStartFrame	OrigNumFrames
100.000000	100.000000	7	18	mm	100.000000	334	891
Frame#	Time	c7			r should			l should			sacrum			r asis			r bar 1			r knee 1			r bar 2			r mall			r heel			r met			l asis			l bar 1			l knee 1			l bar 2			l mall			l heel			l met			
		X1	Y1	Z1	X2	Y2	Z2	X3	Y3	Z3	X4	Y4	Z4	X5	Y5	Z5	X6	Y6	Z6	X7	Y7	Z7	X8	Y8	Z8	X9	Y9	Z9	X10	Y10	Z10	X11	Y11	Z11	X12	Y12	Z12	X13	Y13	Z13	X14	Y14	Z14	X15	Y15	Z15	X16	Y16	Z16	X17	Y17	Z17	X18	Y18	Z18	

335	3.34	1853.334350585938	1509.579467773438	195.3294982910156	1753.604736328125	1440.791137695313	35.85684967041016	1781.925170898438	1466.246459960938	372.8920593261719	1868.686767578125	1038.196044921875	213.5333862304688	1674.382446289063	1021.3212890625	102.2042388916016	1706.984741210938	603.409423828125	38.84269714355469	1685.955932617188	519.685791015625	92.65237426757813	1735.706909179688	191.5502471923828	85.05181884765625	1717.059326171875	66.80876159667969	149.2054595947266	1769.24365234375	33.83921432495117	203.4069366455078	1565.384643554688	36.17382049560547	140.7068176269531	1695.886474609375	1020.8427734375	352.0765380859375	1691.390625	602.6116943359375	445.6093139648438	1652.558715820313	511.1322326660156	406.6987609863281	1879.225463867188	342.9148864746094	429.76123046875	1992.322509765625	214.6925964355469	354.8919982910156	2051.7373046875	228.6641693115234	288.5901184082031	1928.758911132813	85.62685394287109	351.6717834472656	
336	3.35	1845.77685546875	1510.098266601563	193.8791351318359	1746.409545898438	1441.254150390625	34.53087615966797	1774.993286132813	1466.665161132813	371.6653747558594	1861.064819335938	1039.6552734375	213.1660003662109	1666.043334960938	1022.155029296875	100.0584869384766	1704.681884765625	603.489013671875	38.28180694580078	1684.1328125	519.4673461914063	91.8431396484375	1735.420776367188	191.6942291259766	84.82038116455078	1716.981689453125	66.80727386474609	149.2196350097656	1769.318115234375	33.93552017211914	203.4246520996094	1565.342163085938	36.06837844848633	140.5669250488281	1686.65185546875	1022.466552734375	349.8313293457031	1674.134765625	604.8137817382813	444.8525695800781	1635.691650390625	513.7373046875	405.0543823242188	1860.40380859375	343.0101928710938	428.5568237304688	1971.704711914063	212.5882110595703	354.2271728515625	2032.318603515625	224.6179046630859	288.6285705566406	1903.82421875	86.07916259765625	349.8441467285156	
337	3.36	1838.35205078125	1510.582641601563	192.4792175292969	1738.859619140625	1441.755981445313	33.19223785400391	1767.780639648438	1467.120849609375	370.3067321777344	1853.557373046875	1040.906127929688	212.9054565429688	1659.477416992188	1022.30224609375	97.96603393554688	1702.865844726563	603.6121215820313	37.57800674438477	1682.607055664063	519.423095703125	90.91629028320313	1734.928833007813	191.7306213378906	84.52721405029297	1716.88671875	66.79243469238281	149.178466796875	1769.17724609375	33.87961196899414	203.4988555908203	1565.360717773438	35.97502899169922	140.3630981445313	1677.41748046875	1023.81298828125	347.5909423828125	1656.972534179688	607.0098266601563	444.0354614257813	1619.308715820313	516.3307495117188	403.2430725097656	1840.9326171875	342.02685546875	427.4771118164063	1950.182983398438	209.2819061279297	353.5303955078125	2012.556762695313	219.5834045410156	288.73291015625	1878.740966796875	85.5997314453125	347.587646484375	
338	3.37	1830.896118164063	1510.973510742188	191.1103820800781	1731.585327148438	1442.3896484375	31.83405876159668	1760.96142578125	1467.676513671875	369.1098937988281	1846.157836914063	1041.918579101563	212.7744903564453	1653.653198242188	1022.02392578125	95.76549530029297	1701.180419921875	603.7006225585938	36.77873611450195	1681.15087890625	519.3858032226563	90.10492706298828	1734.387939453125	191.7034454345703	84.26116943359375	1716.824951171875	66.80043792724609	149.1379699707031	1769.13720703125	33.901123046875	203.5722808837891	1565.376831054688	35.81473159790039	140.1919708251953	1668.948486328125	1024.793701171875	345.402587890625	1640.21923828125	609.266357421875	443.0127563476563	1603.008422851563	518.7689819335938	401.2145385742188	1820.956909179688	339.92822265625	426.542236328125	1928.318603515625	205.15185546875	352.7603759765625	1992.125244140625	213.5237426757813	288.6540222167969	1852.114379882813	85.03688812255859	345.6888427734375	
339	3.38	1823.409545898438	1511.349487304688	189.8233032226563	1724.405395507813	1443.055908203125	30.48197746276855	1753.726928710938	1468.196166992188	367.8974304199219	1838.722412109375	1042.587890625	212.7834777832031	1649.80322265625	1021.484985351563	93.67552185058594	1699.433837890625	603.7178344726563	36.02821350097656	1679.481689453125	519.3035888671875	89.48048400878906	1734.06201171875	191.8093719482422	84.11932373046875	1716.795654296875	66.82884216308594	149.1214447021484	1769.06201171875	33.9160041809082	203.6478729248047	1565.404174804688	35.68453216552734	139.9045562744141	1661.333740234375	1025.545654296875	343.1966247558594	1623.872192382813	611.572021484375	441.890380859375	1586.813842773438	521.1815795898438	399.0479736328125	1800.638671875	336.8189697265625	425.6437377929688	1906.1259765625	200.2462768554688	351.7623596191406	1970.972045898438	206.5284118652344	288.1181640625	1824.023559570313	84.15921020507813	343.8899230957031	
340	3.39	1815.901245117188	1511.599731445313	188.5938110351563	1717.015502929688	1443.660888671875	29.16236686706543	1746.262084960938	1468.63720703125	366.6170959472656	1831.33740234375	1042.876220703125	212.8769226074219	1642.308349609375	1021.600830078125	91.60298156738281	1697.507202148438	603.7011108398438	35.33058547973633	1677.839477539063	519.0669555664063	88.90779113769531	1733.671020507813	191.7990112304688	84.01759338378906	1716.762451171875	66.92622375488281	149.1342620849609	1769.034423828125	33.78376388549805	203.8232421875	1565.434204101563	35.57058715820313	139.5301208496094	1653.252075195313	1026.008422851563	341.1679992675781	1607.57861328125	613.7457885742188	440.5057067871094	1570.966186523438	523.6896362304688	396.7506103515625	1779.906005859375	332.8226318359375	424.6764831542969	1883.513305664063	194.70458984375	350.5283813476563	1949.342041015625	198.7936401367188	287.2532653808594	1796.598876953125	82.26593017578125	341.66552734375	
341	3.4	1808.489501953125	1511.786254882813	187.4167022705078	1709.724853515625	1444.13671875	27.87460517883301	1738.422119140625	1468.979858398438	365.1926879882813	1824.036743164063	1042.935791015625	212.9900207519531	1634.356689453125	1021.440002441406	89.58654022216797	1695.611450195313	603.6454467773438	34.80760955810547	1676.215942382813	518.7130737304688	88.28118133544922	1733.483520507813	191.8781890869141	84.09573364257813	1716.733276367188	67.01510620117188	149.2939758300781	1768.54541015625	33.27032089233398	204.2016906738281	1565.389282226563	35.36367797851563	139.2967376708984	1644.97119140625	1026.201538085938	339.0995178222656	1591.768188476563	615.9779052734375	438.8426513671875	1555.487060546875	525.9899291992188	394.2795715332031	1758.987182617188	328.3658752441406	423.5021667480469	1860.505737304688	188.7369689941406	349.1791381835938	1926.874877929688	190.2572326660156	286.1896362304688	1769.255493164063	80.16078948974609	339.8022766113281	
